# xmcd
#
# Track frame offsets: 
#        150
#        14749
#        25018
#        36442
#        50018
#        66683
#        85988
#        101135
#        116266
#        130084
#        145439
#        157372
#
# Disc length: 2326 seconds
#
# Revision: 0
# Processed by: cddbd v1.5.2PL0 Copyright (c) Steve Scherf et al.
# Submitted via: ExactAudioCopy v0.99pb5
#
DISCID=b609140c
DTITLE=The Fox Hunt - Long Way To Go
DYEAR=2010
DGENRE=Country/Folk
TTITLE0=Screw Me Up
TTITLE1=Trouble Makin' Woman
TTITLE2=Sinners Like Me
TTITLE3=It Suits Me
TTITLE4=The Only Sounds I Hear
TTITLE5=Four Horses
TTITLE6=No Penance
TTITLE7=Get Back Home
TTITLE8=Won't Slow Down
TTITLE9=Lower Than I Should Be
TTITLE10=I'll Drink Cheap
TTITLE11=When The Roll's Called
EXTD=
EXTT0=
EXTT1=
EXTT2=
EXTT3=
EXTT4=
EXTT5=
EXTT6=
EXTT7=
EXTT8=
EXTT9=
EXTT10=
EXTT11=
PLAYORDER=
